<?xml version="1.0" encoding="UTF-8" standalone="no"?>
<!DOCTYPE svg PUBLIC "-//W3C//DTD SVG 1.1//EN" "http://www.w3.org/Graphics/SVG/1.1/DTD/svg11.dtd">
<svg width="100%" height="100%" viewBox="0 0 100 100" version="1.1" xmlns="http://www.w3.org/2000/svg" xmlns:xlink="http://www.w3.org/1999/xlink" xml:space="preserve" style="fill-rule:evenodd;clip-rule:evenodd;stroke-linejoin:round;stroke-miterlimit:1.41421;">
    <g transform="matrix(1,0,0,1,-28.8535,39.8509)">
        <path d="M112.807,-32.694C115.672,-32.694 118.064,-31.62 119.985,-29.471C121.677,-27.616 122.524,-25.451 122.524,-22.977C122.524,-20.08 121.45,-17.655 119.301,-15.702C117.446,-14.009 115.281,-13.163 112.807,-13.163C109.942,-13.163 107.534,-14.237 105.58,-16.385C103.888,-18.273 103.041,-20.47 103.041,-22.977C103.041,-25.842 104.116,-28.234 106.264,-30.155C108.152,-31.847 110.333,-32.694 112.807,-32.694ZM112.807,-29.471C110.919,-29.471 109.308,-28.739 107.973,-27.274C106.834,-26.037 106.264,-24.605 106.264,-22.977C106.264,-21.056 106.996,-19.429 108.461,-18.094C109.698,-16.955 111.147,-16.385 112.807,-16.385C114.695,-16.385 116.29,-17.118 117.592,-18.582C118.731,-19.852 119.301,-21.317 119.301,-22.977C119.301,-24.865 118.585,-26.46 117.153,-27.762C115.883,-28.901 114.435,-29.471 112.807,-29.471ZM76.723,-4.715C76.723,-8.036 76.658,-11.893 76.528,-16.288C76.397,-19.054 76.023,-20.926 75.405,-21.903C74.428,-23.53 72.361,-24.767 69.203,-25.614L70.034,-28.299C74.493,-28.202 77.96,-27.664 80.434,-26.688C82.224,-25.972 83.119,-24.849 83.119,-23.319C83.119,-22.733 83.022,-21.821 82.826,-20.584C82.664,-19.445 82.566,-18.68 82.534,-18.289C82.175,-14.839 81.996,-10.477 81.996,-5.204C88.442,-5.692 93.992,-6.196 98.647,-6.717C100.47,-6.88 102.228,-7.287 103.92,-7.938C105.19,-8.459 106.231,-8.719 107.045,-8.719C109.975,-8.719 112.221,-8.198 113.784,-7.157C115.086,-6.31 115.737,-5.252 115.737,-3.983C115.737,-2.388 114.532,-1.59 112.123,-1.59L99.428,-1.981C96.173,-1.981 90.362,-1.72 81.996,-1.2C81.996,8.924 82.175,19.796 82.534,31.418C82.566,32.329 82.647,33.696 82.778,35.519C82.875,36.789 82.924,37.7 82.924,38.254C82.924,42.355 82.42,45.252 81.41,46.945C80.499,48.475 79.376,49.24 78.041,49.24C76.967,49.24 76.088,48.231 75.405,46.212C74.721,44.227 73.923,42.892 73.012,42.209C69.887,39.865 65.851,37.505 60.903,35.129L61.635,32.834C67.201,34.624 72.263,36.056 76.821,37.13C76.886,32.964 76.918,25.884 76.918,15.89C76.918,11.105 76.886,5.539 76.821,-0.809C70.538,-0.191 64.304,0.509 58.119,1.291C56.166,1.518 54.669,1.795 53.627,2.121C52.455,2.446 51.69,2.609 51.332,2.609C49.802,2.609 48.126,1.795 46.303,0.168C44.643,-1.297 43.178,-3.185 41.909,-5.496L44.008,-7.108C47.068,-4.439 50.03,-3.104 52.895,-3.104C55.141,-3.104 63.084,-3.641 76.723,-4.715ZM55.922,11.496L58.998,12.13C57.859,21.766 54.994,29.464 50.405,35.226C48.289,37.83 46.319,39.132 44.496,39.132C42.511,39.132 41.518,37.602 41.518,34.543C41.518,32.72 42.69,30.946 45.034,29.22C50.763,24.989 54.392,19.08 55.922,11.496ZM98.403,9.005C104.457,12.847 109.259,17.257 112.807,22.238C115.476,25.916 116.811,29.318 116.811,32.443C116.811,35.763 115.444,37.423 112.709,37.423C110.919,37.423 109.747,36.252 109.194,33.908C107.078,24.63 102.781,17.03 96.303,11.105L98.403,9.005Z" style="fill-rule:nonzero;"/>
    </g>
</svg>
